<svg width="634" height="265" viewBox="0 0 634 265" fill="none" xmlns="http://www.w3.org/2000/svg">
<path d="M55.3224 147.361C45.77 147.361 37.4946 145.19 30.4963 140.848C23.5491 136.455 18.1854 130.045 14.4053 121.616C10.6763 113.188 8.81174 102.869 8.81174 90.661C8.81174 78.4015 10.7018 68.032 14.4819 59.5525C18.262 51.0219 23.6257 44.5602 30.5729 40.1672C37.5201 35.7231 45.77 33.5011 55.3224 33.5011C64.8237 33.5011 73.0225 35.6975 79.9186 40.0906C86.8147 44.4836 92.1018 50.9453 95.7797 59.4759C99.5087 67.9553 101.373 78.3505 101.373 90.661C101.373 102.818 99.5087 113.111 95.7797 121.54C92.1018 129.968 86.8147 136.378 79.9186 140.772C73.0225 145.165 64.8237 147.361 55.3224 147.361ZM55.3224 138.396C62.9337 138.396 69.3701 136.685 74.6316 133.263C79.9442 129.841 83.9541 124.605 86.6615 117.555C89.42 110.455 90.7992 101.516 90.7992 90.7376C90.7992 79.7551 89.3944 70.7137 86.5849 63.6135C83.8264 56.5132 79.8164 51.2263 74.5549 47.7527C69.2935 44.2281 62.8825 42.4658 55.3224 42.4658C47.7622 42.4658 41.3002 44.2281 35.9366 47.7527C30.5729 51.2263 26.4608 56.5387 23.6001 63.6901C20.7906 70.8415 19.3858 79.8573 19.3858 90.7376C19.3858 101.567 20.7906 110.506 23.6001 117.555C26.4608 124.605 30.5729 129.841 35.9366 133.263C41.3002 136.685 47.7622 138.396 55.3224 138.396ZM122.57 145.829V66.6017H131.689V78.2483C133.016 75.8986 134.881 73.7276 137.283 71.7354C139.735 69.7432 142.646 68.1598 146.018 66.9848C149.44 65.8099 153.271 65.2225 157.511 65.2225C162.619 65.2225 167.267 66.2697 171.457 68.364C175.696 70.4073 179.043 73.5743 181.495 77.8652C183.997 82.1049 185.249 87.5706 185.249 94.2622V145.829H175.748V94.8752C175.748 87.6217 173.934 82.2836 170.307 78.8612C166.68 75.3877 161.827 73.651 155.749 73.651C151.611 73.651 147.728 74.315 144.102 75.6431C140.475 76.9201 137.563 78.8868 135.367 81.543C133.222 84.1992 132.149 87.5706 132.149 91.6571V145.829H122.57ZM226.68 146.595C223.361 146.595 220.576 146.085 218.328 145.063C216.132 143.99 214.396 142.534 213.118 140.695C211.841 138.806 210.948 136.66 210.436 134.259C209.926 131.807 209.67 129.202 209.67 126.443V31.9686H219.095V125.907C219.095 130.504 219.963 133.85 221.7 135.945C223.437 138.039 225.557 139.112 228.06 139.163L232.58 139.239V145.676C231.61 145.982 230.563 146.212 229.439 146.365C228.366 146.518 227.447 146.595 226.68 146.595ZM255.664 171.114C251.424 171.114 248.589 170.858 247.159 170.348C245.728 169.837 245.013 169.582 245.013 169.582V163.222L253.212 163.299C255.868 163.349 258.116 163.119 259.955 162.609C261.844 162.099 263.403 161.383 264.629 160.464C265.855 159.595 266.825 158.599 267.541 157.475C268.307 156.352 268.92 155.177 269.38 153.951L272.904 144.756L241.872 66.6017H251.756L277.655 133.11L303.094 66.6017H312.442L278.345 154.87C276.709 158.957 274.768 162.175 272.521 164.525C270.324 166.926 267.795 168.611 264.935 169.582C262.125 170.604 259.035 171.114 255.664 171.114Z" fill="white"/>
<path d="M54.9961 130.999C71.7186 130.999 85.2748 113.016 85.2748 90.834C85.2748 68.6517 71.7186 50.6693 54.9961 50.6693C38.2736 50.6693 24.7173 68.6517 24.7173 90.834C24.7173 113.016 38.2736 130.999 54.9961 130.999Z" fill="#00ACD1"/>
<path d="M73.9988 80.9721C73.9988 82.2144 73.806 83.3284 73.4204 84.3138C73.0777 85.2991 72.585 86.1774 71.9423 86.9486C71.2997 87.7197 70.5499 88.4052 69.693 89.005C68.8362 89.6047 67.8936 90.1617 66.8654 90.6759C67.3366 90.8473 67.8936 91.1257 68.5363 91.5113C69.1789 91.854 69.8002 92.3467 70.3999 92.9893C70.9997 93.632 71.4924 94.4674 71.878 95.4956C72.3065 96.481 72.5207 97.702 72.5207 99.1586C72.5207 101.087 72.1137 102.865 71.2997 104.493C70.4856 106.12 69.2645 107.534 67.6365 108.734C66.0513 109.891 64.0806 110.812 61.7242 111.497C59.4106 112.14 56.7329 112.461 53.691 112.461H34.6043L43.2801 71.6538H60.1818C61.8527 71.6538 63.5022 71.7824 65.1302 72.0394C66.8011 72.2536 68.2792 72.7034 69.5645 73.389C70.8927 74.0745 71.9637 75.0384 72.7778 76.2808C73.5918 77.4804 73.9988 79.0441 73.9988 80.9721ZM56.5187 88.7479C57.4613 88.7479 58.2538 88.4695 58.8965 87.9125C59.582 87.3555 60.1389 86.6701 60.5674 85.8561C60.9959 84.9993 61.3172 84.0996 61.5314 83.157C61.7455 82.1717 61.8527 81.2934 61.8527 80.5222C61.8527 79.2798 61.5527 78.2301 60.953 77.3733C60.396 76.4736 59.4963 76.0238 58.2538 76.0238H56.3259L53.5625 88.7479H56.5187ZM51.8916 108.413C53.1769 108.413 54.248 108.048 55.1048 107.32C55.9617 106.592 56.6686 105.692 57.2256 104.621C57.7826 103.55 58.1682 102.436 58.3824 101.279C58.6394 100.08 58.768 99.0301 58.768 98.1304C58.768 96.631 58.4466 95.4527 57.804 94.5959C57.2042 93.6962 56.2187 93.2464 54.8478 93.2464H52.47L49.321 108.413H51.8916Z" fill="white"/>
<path d="M309.647 144.264C306.928 144.264 304.765 143.152 303.158 140.927C301.675 138.827 300.934 136.417 300.934 133.698C300.934 130.237 302.417 125.788 305.383 120.351C308.349 114.914 312.304 108.673 317.247 101.628C322.314 94.4605 327.937 86.6747 334.117 78.271C340.42 69.8673 346.846 60.9693 353.396 51.5769C353.643 51.3298 353.273 51.7623 352.284 52.8746C351.295 53.9868 350.059 55.4698 348.576 57.3236C347.093 59.0537 345.61 60.8457 344.127 62.6995C342.644 64.5532 341.408 66.0362 340.42 67.1485C339.555 68.2607 339.184 68.6933 339.307 68.4461L354.694 44.718C355.435 43.6058 356.61 42.3081 358.216 40.8251C359.823 39.2186 360.626 37.9827 360.626 37.1176C360.626 36.6233 360.008 36.3761 358.772 36.3761C358.402 36.3761 357.907 36.3761 357.289 36.3761C356.795 36.3761 356.177 36.4997 355.435 36.7469C352.84 37.2412 349.38 38.2917 345.054 39.8983C340.729 41.5049 335.971 43.4822 330.78 45.8303C325.713 48.0548 320.584 50.5883 315.393 53.4307C310.326 56.2731 305.692 59.1773 301.49 62.1433C297.288 65.1093 293.951 68.0754 291.479 71.0414C289.008 73.8838 287.834 76.5408 287.957 79.0125C288.204 81.9785 287.957 83.9559 287.216 84.9445C286.474 85.8096 285.547 86.7365 284.435 87.7252C283.817 88.2195 282.952 88.4667 281.84 88.4667C279.862 88.4667 277.885 87.478 275.907 85.5007C274.054 83.5233 273.127 80.9899 273.127 77.9003C273.127 76.1701 273.436 74.4399 274.054 72.7097C274.795 70.856 275.969 68.9404 277.576 66.9631C280.913 62.7613 285.671 58.6212 291.85 54.5429C298.153 50.4647 305.197 46.6954 312.983 43.235C320.769 39.7747 328.679 36.8705 336.712 34.5224C344.745 32.1743 352.222 30.5677 359.143 29.7026C361.368 29.4554 363.778 30.2587 366.373 32.1125C368.968 33.9662 371.131 36.1907 372.861 38.786C374.715 41.3813 375.642 43.6676 375.642 45.6449C375.642 46.6336 375.395 47.3751 374.9 47.8694C369.957 53.1835 364.643 59.1773 358.958 65.8508C353.396 72.4008 348.144 78.8889 343.2 85.3153C338.257 91.7416 334.24 97.4265 331.151 102.37C329.544 104.965 327.876 107.375 326.145 109.599C324.539 111.7 323.735 112.874 323.735 113.122C323.735 113.369 324.415 112.936 325.775 111.824C327.134 110.712 329.482 108.611 332.819 105.521C333.931 104.409 335.971 102.432 338.937 99.5892C341.903 96.6232 345.363 93.2246 349.318 89.3935C353.396 85.5625 357.598 81.6078 361.924 77.5295C366.373 73.3277 370.637 69.4966 374.715 66.0362C378.917 62.4523 382.625 59.4863 385.838 57.1382C389.175 54.7901 391.585 53.5543 393.068 53.4307C393.933 53.3071 395.23 53.6778 396.961 54.5429C398.691 55.2844 400.359 56.2731 401.966 57.5089C403.696 58.6212 405.056 59.7952 406.044 61.0311C407.033 62.2669 407.218 63.2556 406.6 63.9971C405.117 65.8508 403.264 68.5079 401.039 71.9682C398.814 75.305 396.528 79.0743 394.18 83.2762C391.955 87.478 389.854 91.7416 387.877 96.0671C385.529 101.134 383.613 106.016 382.13 110.712C380.647 115.408 379.906 119.177 379.906 122.02C379.906 125.603 381.142 127.395 383.613 127.395C385.22 127.395 387.383 126.53 390.102 124.8C392.944 123.07 396.466 120.289 400.668 116.458C405.117 112.38 409.628 107.499 414.201 101.814C418.897 96.1289 423.47 90.135 427.919 83.8323C432.368 77.5295 436.508 71.2885 440.34 65.1093C444.294 58.8066 447.755 52.9981 450.721 47.684C453.811 42.3699 456.159 37.9827 457.765 34.5224C458.136 33.7809 457.765 32.9776 456.653 32.1125C455.541 31.2474 454.861 30.3823 454.614 29.5172C454.243 27.7871 454.49 26.2423 455.355 24.8828C456.344 23.5234 457.765 23.1527 459.619 23.7706C463.697 25.0064 467.158 27.1073 470 30.0734C472.966 32.9158 474.449 35.5728 474.449 38.0445C474.449 39.0332 474.326 39.7129 474.079 40.0836C472.472 43.4204 470.309 47.3133 467.59 51.7623C464.995 56.2113 462.709 60.166 460.731 63.6263C460.855 63.132 461.226 62.1433 461.844 60.6603C462.585 59.0537 463.388 57.3236 464.254 55.4698C465.119 53.6161 465.86 52.0713 466.478 50.8354C467.096 49.476 467.343 48.9199 467.22 49.167C465.366 52.2566 463.203 55.7788 460.731 59.7335C458.383 63.5645 455.788 67.6428 452.945 71.9682L458.507 64.1825C456.035 68.6315 453.749 72.648 451.648 76.2319C449.547 79.6922 447.384 83.0908 445.159 86.4275C442.935 89.6407 440.401 93.1628 437.559 96.9939C434.716 100.949 431.441 105.027 427.734 109.229C424.026 113.431 420.257 117.447 416.426 121.278C412.718 124.985 409.381 128.075 406.415 130.546C405.673 131.041 405.241 131.041 405.117 130.546C402.028 133.142 399.123 135.243 396.404 136.849C393.686 138.332 391.09 139.197 388.619 139.444C385.405 138.827 382.192 137.714 378.979 136.108C375.889 134.378 373.17 132.4 370.822 130.176C368.597 127.828 367.238 125.418 366.744 122.947C366.373 121.093 366.188 119.548 366.188 118.312C366.188 117.076 366.311 115.717 366.558 114.234C366.929 112.751 367.362 110.835 367.856 108.487C368.968 103.42 370.575 98.1062 372.676 92.5449C374.777 86.9837 376.94 81.9167 379.164 77.3441C381.389 72.7715 383.304 69.4966 384.911 67.5192C381.451 69.8673 377.249 73.0805 372.305 77.1588C367.485 81.1134 362.356 85.5625 356.919 90.5058C351.481 95.3256 346.105 100.269 340.79 105.336C335.6 110.403 330.904 115.223 326.702 119.795C322.5 124.367 319.225 128.322 316.876 131.659C318.236 130.423 319.966 128.693 322.067 126.468C324.168 124.244 326.145 122.143 327.999 120.166C329.977 118.065 331.336 116.767 332.078 116.273C331.089 117.385 329.791 118.93 328.185 120.907C326.578 122.761 324.971 124.676 323.365 126.654C321.882 128.631 320.584 130.299 319.472 131.659C318.483 133.018 317.989 133.76 317.989 133.883C318.112 134.254 318.174 134.748 318.174 135.366C318.174 137.714 317.185 139.753 315.208 141.484C313.231 143.337 311.377 144.264 309.647 144.264ZM405.117 130.546C410.308 126.221 415.684 120.846 421.245 114.419C426.93 107.869 432.492 100.887 437.93 93.4718C443.367 86.0568 448.373 78.8889 452.945 71.9682L435.705 95.8817C428.537 105.892 422.111 113.554 416.426 118.868C410.741 124.058 407.404 127.148 406.415 128.137C405.55 128.878 405.117 129.681 405.117 130.546Z" fill="#00ACD1"/>
<path d="M487.626 63.441C486.02 62.6995 484.351 61.2782 482.621 59.1773C480.891 57.0764 480.026 55.2844 480.026 53.8014C480.026 52.5656 480.582 51.9477 481.694 51.9477C482.312 51.9477 483.054 52.0713 483.919 52.3184C484.784 52.442 485.649 52.5038 486.514 52.5038C487.626 52.5038 488.862 52.133 490.222 51.3915C491.581 50.5265 492.941 50.0939 494.3 50.0939C496.03 50.0939 497.39 51.268 498.378 53.6161C498.749 54.234 498.44 55.0991 497.451 56.2113C496.463 57.3236 495.289 58.374 493.929 59.3627C492.693 60.3514 491.643 61.0929 490.778 61.5872C491.396 61.5872 492.384 61.1547 493.744 60.2896C495.103 59.3009 496.216 58.374 497.081 57.5089C495.474 59.4863 493.62 61.0311 491.519 62.1433C489.418 63.132 488.121 63.5645 487.626 63.441ZM447.399 138.888C445.174 136.911 443.629 135.304 442.764 134.069C442.023 132.709 441.652 131.473 441.652 130.361C441.652 129.496 441.776 128.631 442.023 127.766C442.394 126.901 442.703 125.974 442.95 124.985C444.309 120.413 446.534 115.47 449.623 110.156C452.713 104.842 456.05 99.651 459.634 94.5841C463.341 89.3935 466.617 84.8209 469.459 80.8663C469.212 80.6191 469.088 79.8776 469.088 78.6418C469.088 76.9116 469.397 74.996 470.015 72.8951C470.757 70.6706 471.745 69.8055 472.981 70.2999C474.464 70.6706 476.195 71.4121 478.172 72.5244C480.273 73.6366 482.127 74.9342 483.733 76.4173C485.34 77.9003 486.143 79.5068 486.143 81.237C486.143 81.6078 486.02 82.1639 485.773 82.9054H485.587C482.374 86.3657 479.222 90.1968 476.133 94.3987C473.043 98.6005 470.324 102.555 467.976 106.263C465.751 109.847 464.207 112.565 463.341 114.419C464.083 114.048 464.886 113.554 465.751 112.936C466.617 112.318 467.543 111.577 468.532 110.712C467.914 111.082 467.358 111.33 466.864 111.453C466.493 111.577 466.431 111.577 466.678 111.453C469.892 108.858 473.599 106.201 477.801 103.482C482.127 100.763 486.514 98.2916 490.963 96.0671C495.412 93.719 499.614 91.8034 503.569 90.3204H503.94C504.187 90.3204 504.002 90.5058 503.384 90.8765C502.889 91.1237 502.21 91.4327 501.344 91.8034C500.479 92.1742 499.305 92.7921 497.822 93.6572C496.339 94.3987 494.671 95.3256 492.817 96.4378C494.547 95.6963 496.339 94.8312 498.193 93.8426C500.047 92.8539 501.962 92.0506 503.94 91.4327C504.558 91.1855 505.114 91.0001 505.608 90.8765C506.226 90.753 506.659 90.6912 506.906 90.6912C507.771 90.6912 508.204 91.0001 508.204 91.618C508.204 92.4831 507.338 93.719 505.608 95.3256C503.878 96.9322 501.653 98.4769 498.934 99.96C497.328 100.825 494.794 102.432 491.334 104.78C487.997 107.128 484.166 109.908 479.84 113.122C475.515 116.211 471.127 119.424 466.678 122.761C462.353 126.097 458.46 129.187 454.999 132.029C451.539 134.872 449.005 137.158 447.399 138.888ZM468.532 110.712C469.15 110.465 469.768 110.156 470.386 109.785C471.127 109.291 471.622 108.982 471.869 108.858C474.217 107.251 477.307 105.398 481.138 103.297C485.093 101.072 488.986 98.7859 492.817 96.4378C486.638 99.4038 481.756 101.999 478.172 104.224C474.588 106.448 471.375 108.611 468.532 110.712Z" fill="#00ACD1"/>
<path d="M489.735 139.444C487.634 139.197 485.965 138.023 484.729 135.922C483.494 133.698 482.876 131.597 482.876 129.62C482.876 128.013 483.864 125.418 485.842 121.834C487.819 118.127 490.291 113.987 493.257 109.414C496.347 104.718 499.498 100.084 502.711 95.5109C506.048 90.9383 509.014 86.9219 511.61 83.4615C514.205 79.8776 515.997 77.4059 516.986 76.0465C513.896 79.5068 511.362 82.4111 509.385 84.7592C507.531 86.9837 506.481 88.0959 506.234 88.0959C506.11 88.0959 507.099 86.4893 509.2 83.2761C511.424 80.063 515.194 74.5635 520.508 66.7777C521.744 66.7777 523.288 67.3339 525.142 68.4461C526.996 69.5584 528.664 70.856 530.148 72.339C531.754 73.6984 532.557 74.996 532.557 76.2319C531.445 77.962 529.777 80.2483 527.552 83.0908C525.328 85.9332 522.794 88.961 519.952 92.1742C517.109 95.3874 514.39 98.5387 511.795 101.628C509.2 104.594 506.975 107.19 505.121 109.414C505.492 109.043 506.913 107.869 509.385 105.892C511.857 103.915 514.946 101.443 518.654 98.477C522.362 95.3874 526.255 92.236 530.333 89.0228C534.535 85.686 538.551 82.5964 542.383 79.754C546.214 76.788 549.489 74.3781 552.208 72.5244C554.927 70.6706 556.657 69.7437 557.398 69.7437C558.016 69.7437 558.881 70.2381 559.994 71.2267C561.106 72.2154 562.218 73.4512 563.331 74.9342C564.566 76.2937 565.493 77.6531 566.111 79.0125C566.729 80.2483 566.791 81.1134 566.297 81.6078C565.555 82.3493 563.763 84.203 560.921 87.169C558.202 90.135 554.988 93.6572 551.281 97.7354C547.697 101.814 544.236 105.892 540.9 109.97C537.686 113.925 535.215 117.323 533.484 120.166L546.461 112.009C547.45 111.391 547.45 111.453 546.461 112.195C545.472 112.936 544.236 113.863 542.753 114.975C541.27 116.088 540.158 116.953 539.417 117.571C539.046 117.941 538.613 118.559 538.119 119.424C537.625 120.166 537.563 120.351 537.934 119.981C539.787 118.374 542.135 116.582 544.978 114.605C547.82 112.627 550.787 110.65 553.876 108.673C557.089 106.572 559.932 104.718 562.404 103.111C560.179 104.224 558.016 105.336 555.915 106.448C553.814 107.56 551.59 108.858 549.242 110.341L551.837 108.487C552.949 107.622 554.556 106.572 556.657 105.336C558.758 104.1 560.859 102.926 562.96 101.814C565.184 100.701 566.853 99.9599 567.965 99.5892L562.589 103.111C563.949 102.493 565.37 101.876 566.853 101.258C568.336 100.516 569.881 99.7746 571.487 99.0331C572.476 98.6623 573.156 98.477 573.526 98.477C574.639 98.477 574.701 99.1567 573.712 100.516C572.847 101.875 571.549 103.05 569.819 104.038C567.1 105.398 563.887 107.499 560.179 110.341C556.472 113.183 552.579 116.335 548.5 119.795C544.545 123.255 540.714 126.715 537.007 130.176C533.299 133.512 530.148 136.478 527.552 139.074C524.957 136.973 523.597 134.872 523.474 132.771C523.35 130.67 523.288 128.816 523.288 127.21V126.468C523.288 126.097 523.288 125.665 523.288 125.171C523.412 124.553 523.659 123.873 524.03 123.132C523.906 122.514 523.412 122.081 522.547 121.834C521.682 121.464 521.311 121.031 521.435 120.537C521.929 118.189 523.103 115.47 524.957 112.38C526.811 109.291 528.912 106.077 531.26 102.741C533.732 99.4038 536.203 96.1906 538.675 93.1011C541.147 90.0115 543.248 87.3544 544.978 85.1299C546.708 82.9054 547.82 81.3606 548.315 80.4955C546.955 81.7314 544.669 83.8323 541.456 86.7983C538.243 89.6407 534.535 92.9775 530.333 96.8086C526.255 100.516 521.991 104.471 517.542 108.673C513.093 112.874 508.891 117.015 504.936 121.093C500.981 125.047 497.644 128.631 494.925 131.844C492.206 135.057 490.476 137.591 489.735 139.444Z" fill="#00ACD1"/>
<path d="M593.908 145.933C591.56 145.933 588.594 145.068 585.01 143.337C581.426 141.607 578.028 139.506 574.814 137.035C571.725 134.563 569.562 132.338 568.326 130.361C566.843 127.766 566.101 125.603 566.101 123.873C566.101 122.885 566.41 122.39 567.028 122.39C568.141 122.39 569.747 123.688 571.848 126.283C572.713 127.395 574.32 128.507 576.668 129.62C579.14 130.608 581.859 131.473 584.825 132.215C587.914 132.956 590.757 133.327 593.352 133.327C593.97 133.327 594.465 133.327 594.835 133.327C595.33 133.327 595.824 133.265 596.318 133.142C596.195 130.299 594.959 127.395 592.611 124.429C590.263 121.34 587.544 118.127 584.454 114.79C581.488 111.453 578.893 108.055 576.668 104.594C575.061 102.123 574.258 99.5274 574.258 96.8086C574.258 93.101 575.741 89.5789 578.707 86.2422C581.673 82.9054 585.319 79.8776 589.645 77.1588C590.757 76.5408 591.869 75.9229 592.982 75.305C594.094 74.6871 595.206 74.131 596.318 73.6366C594.341 74.2545 592.364 74.996 590.386 75.8611C588.409 76.7262 586.555 77.6531 584.825 78.6418H584.639C584.516 78.6418 584.639 78.5182 585.01 78.271C585.381 77.9003 585.69 77.6531 585.937 77.5295C590.881 74.3163 596.071 72.0918 601.509 70.856C607.07 69.6201 611.952 69.0022 616.154 69.0022C617.143 69.0022 618.07 69.064 618.935 69.1876C619.8 69.1876 620.603 69.2494 621.345 69.373C621.715 69.4966 621.963 69.6819 622.086 69.9291C622.21 70.1763 621.963 70.2999 621.345 70.2999L624.496 71.4121C625.608 71.9064 626.597 73.513 627.462 76.2319C628.451 78.8271 629.131 81.1752 629.501 83.2761C629.625 83.1526 629.687 83.029 629.687 82.9054C629.934 82.2875 630.058 81.7931 630.058 81.4224C630.058 80.9281 630.119 80.4337 630.243 79.9394C630.367 79.6922 630.676 80.1248 631.17 81.237C631.664 82.2257 632.097 83.3997 632.468 84.7591C632.962 85.995 633.209 87.0455 633.209 87.9105C633.085 90.135 632.282 92.5449 630.799 95.1402C629.316 97.7354 627.709 99.7746 625.979 101.258C624.373 102.741 623.013 103.05 621.901 102.184C623.26 100.701 624.311 98.9713 625.052 96.9939C622.333 100.825 619.058 104.162 615.227 107.004C611.52 109.723 608.553 111.082 606.329 111.082C605.217 111.082 604.661 110.774 604.661 110.156C604.661 109.785 604.908 109.291 605.402 108.673C606.02 108.055 606.453 107.684 606.7 107.56C607.936 106.819 609.48 105.583 611.334 103.853C613.188 101.999 615.042 99.8982 616.896 97.5501C618.749 95.202 620.356 92.9157 621.715 90.6912C623.199 88.4667 624.187 86.6129 624.682 85.1299C624.682 83.029 623.198 81.9785 620.232 81.9785C618.502 81.9785 616.463 82.2875 614.115 82.9054C611.89 83.5233 609.604 84.2648 607.256 85.1299C602.683 86.7365 598.481 88.8992 594.65 91.618C590.819 94.3369 588.903 97.3029 588.903 100.516C588.903 101.752 589.274 103.05 590.015 104.409C592.364 107.993 594.774 111.7 597.245 115.531C599.717 119.363 601.818 122.885 603.548 126.097C605.278 129.187 606.144 131.597 606.144 133.327C606.144 134.069 605.587 135.119 604.475 136.478C603.486 137.838 602.251 139.197 600.768 140.557C599.408 142.04 598.049 143.276 596.689 144.264C595.453 145.376 594.526 145.933 593.908 145.933Z" fill="#00ACD1"/>
</svg>
